<svg width="24" height="25" viewBox="0 0 24 25" fill="none" xmlns="http://www.w3.org/2000/svg">
<path d="M12 2.36401C9.99747 2.36401 8.0399 2.95783 6.37486 4.07038C4.70981 5.18293 3.41206 6.76424 2.64572 8.61434C1.87939 10.4644 1.67888 12.5002 2.06955 14.4643C2.46023 16.4284 3.42454 18.2325 4.84055 19.6485C6.25656 21.0645 8.06066 22.0288 10.0247 22.4195C11.9888 22.8101 14.0246 22.6096 15.8747 21.8433C17.7248 21.077 19.3061 19.7792 20.4186 18.1142C21.5312 16.4491 22.125 14.4915 22.125 12.489C22.122 9.80461 21.0543 7.23101 19.1562 5.33285C17.258 3.43469 14.6844 2.36699 12 2.36401ZM12 20.364C10.4425 20.364 8.91993 19.9022 7.62489 19.0368C6.32985 18.1715 5.32049 16.9416 4.72445 15.5026C4.12841 14.0637 3.97246 12.4803 4.27632 10.9527C4.58018 9.42508 5.3302 8.02189 6.43154 6.92055C7.53288 5.81921 8.93607 5.06919 10.4637 4.76533C11.9913 4.46147 13.5747 4.61742 15.0136 5.21346C16.4526 5.8095 17.6825 6.81886 18.5478 8.1139C19.4131 9.40894 19.875 10.9315 19.875 12.489C19.8728 14.5769 19.0424 16.5786 17.566 18.055C16.0896 19.5314 14.0879 20.3618 12 20.364ZM18.375 12.489C18.375 12.7874 18.2565 13.0735 18.0455 13.2845C17.8345 13.4955 17.5484 13.614 17.25 13.614H12C11.7016 13.614 11.4155 13.4955 11.2045 13.2845C10.9935 13.0735 10.875 12.7874 10.875 12.489V7.23901C10.875 6.94065 10.9935 6.6545 11.2045 6.44352C11.4155 6.23254 11.7016 6.11401 12 6.11401C12.2984 6.11401 12.5845 6.23254 12.7955 6.44352C13.0065 6.6545 13.125 6.94065 13.125 7.23901V11.364H17.25C17.5484 11.364 17.8345 11.4825 18.0455 11.6935C18.2565 11.9045 18.375 12.1906 18.375 12.489Z" fill="#626262"/>
</svg>
