<svg width="41" height="41" viewBox="0 0 41 41" fill="none" xmlns="http://www.w3.org/2000/svg">
<g clip-path="url(#clip0_702_1375)">
<path d="M25.8322 12.2445H22.9656L25.7656 7.24451C25.8989 7.04451 25.8989 6.77787 25.7656 6.57787C25.6322 6.37787 25.4322 6.24451 25.1656 6.24451H21.1656C20.8989 6.24451 20.6989 6.37787 20.5656 6.57787L15.8988 15.2445C15.7655 15.4445 15.7655 15.7111 15.8988 15.9111C16.0322 16.1111 16.2322 16.2445 16.4988 16.2445H18.8988L15.8988 24.0445C15.7655 24.3111 15.8988 24.7111 16.1655 24.8445C16.2988 24.9111 16.3655 24.9111 16.4988 24.9111C16.6988 24.9111 16.8988 24.8445 17.0322 24.7111L26.3656 13.3778C26.4989 13.1778 26.5656 12.9111 26.4322 12.6444C26.2988 12.3777 26.0988 12.2445 25.8322 12.2445ZM18.5655 20.5779L20.4321 15.7779C20.4988 15.5779 20.4988 15.3779 20.3655 15.1779C20.2321 15.0445 20.0321 14.9112 19.8321 14.9112H17.6321L21.5655 7.57787H24.0321L21.2321 12.5779C21.0988 12.7779 21.0988 13.0445 21.2321 13.2445C21.3655 13.4445 21.5655 13.5779 21.8321 13.5779H24.4321L18.5655 20.5779Z" fill="#46295A"/>
<path d="M33.7661 12.3779C33.0994 6.04451 28.0328 0.977866 21.7661 0.311147C21.3661 0.311147 20.9661 0.244507 20.4994 0.244507C20.0328 0.244507 19.6328 0.311147 19.2328 0.311147C12.9661 1.04451 7.89945 6.11115 7.23281 12.3779C6.76617 16.6445 8.29945 20.8445 11.3662 23.7779C13.0328 25.3779 14.0995 27.2445 14.4995 29.0445V36.9111C14.4995 37.3111 14.7662 37.5778 15.1662 37.5778H16.1662L17.3662 39.1778C17.8994 39.8445 18.6328 40.2445 19.4994 40.2445H21.4994C22.3661 40.2445 23.1661 39.8445 23.6328 39.1779L24.8328 37.5779H25.8328C26.2328 37.5779 26.4994 37.3112 26.4994 36.9112V29.0445C26.8328 27.2445 27.9661 25.3779 29.6328 23.7779C32.6994 20.7779 34.2328 16.6445 33.7661 12.3779ZM25.1661 30.9111H23.1661C22.7661 30.9111 22.4994 31.1778 22.4994 31.5778C22.4994 31.9778 22.7661 32.2444 23.1661 32.2444H25.1661V33.5778H21.1661C20.7661 33.5778 20.4994 33.8444 20.4994 34.2444C20.4994 34.6444 20.7661 34.9111 21.1661 34.9111H25.1661V36.2445H24.4994H16.4994H15.8328V34.9111H17.8328C18.2328 34.9111 18.4994 34.6445 18.4994 34.2445C18.4994 33.8445 18.2328 33.5779 17.8328 33.5779H15.8328V32.2445H19.8328C20.2328 32.2445 20.4994 31.9779 20.4994 31.5779C20.4994 31.1779 20.2328 30.9112 19.8328 30.9112H15.8328V29.5779H25.1662V30.9111H25.1661ZM22.5661 38.3779C22.2994 38.7112 21.8994 38.9112 21.4994 38.9112H19.4994C19.0994 38.9112 18.6994 38.7112 18.4328 38.3779L17.8328 37.5779H23.1662L22.5661 38.3779ZM28.6994 22.7779C27.0328 24.4445 25.8328 26.3112 25.2994 28.2445H15.6994C15.1661 26.3111 13.9661 24.4445 12.2994 22.7779C9.49945 20.1112 8.16609 16.3779 8.56609 12.5112C9.23273 6.84459 13.7661 2.31123 19.4327 1.64458C19.7661 1.64458 20.0994 1.57794 20.4994 1.57794C20.8994 1.57794 21.2327 1.64458 21.566 1.64458C27.2327 2.31123 31.8327 6.84459 32.4327 12.5112C32.8328 16.3779 31.4994 20.1111 28.6994 22.7779Z" fill="#46295A"/>
</g>
<defs>
<clipPath id="clip0_702_1375">
<rect width="40" height="40" fill="white" transform="translate(0.5 0.244507)"/>
</clipPath>
</defs>
</svg>
