<svg width="24" height="25" viewBox="0 0 24 25" fill="none" xmlns="http://www.w3.org/2000/svg">
<path d="M11.3 20.489C11.4 20.8223 11.5377 21.1683 11.713 21.527C11.8883 21.8857 12.0673 22.2063 12.25 22.489H5C4.45 22.489 3.97933 22.2933 3.588 21.902C3.19667 21.5107 3.00067 21.0397 3 20.489V4.48901C3 3.93901 3.196 3.46835 3.588 3.07701C3.98 2.68568 4.45067 2.48968 5 2.48901H17C17.55 2.48901 18.021 2.68501 18.413 3.07701C18.805 3.46901 19.0007 3.93968 19 4.48901V11.589C18.7 11.5557 18.3667 11.539 18 11.539C17.6333 11.539 17.3 11.5557 17 11.589V4.48901H12V11.489L9.5 9.98901L7 11.489V4.48901H5V20.489H11.3ZM18 23.489C16.6167 23.489 15.4377 23.0013 14.463 22.026C13.4883 21.0507 13.0007 19.8717 13 18.489C12.9993 17.1063 13.487 15.9273 14.463 14.952C15.439 13.9767 16.618 13.489 18 13.489C19.382 13.489 20.5613 13.9767 21.538 14.952C22.5147 15.9273 23.002 17.1063 23 18.489C22.998 19.8717 22.5103 21.051 21.537 22.027C20.5637 23.003 19.3847 23.4903 18 23.489ZM16.75 20.989L20.75 18.489L16.75 15.989V20.989ZM11.3 4.48901H5H17H11H11.3Z" fill="#626262"/>
</svg>
